<svg width="152" height="70" viewBox="0 0 152 70" fill="none" xmlns="http://www.w3.org/2000/svg">
<path d="M142.027 1.55385C144.476 -0.679023 148.253 -0.482017 150.463 1.99386C152.672 4.46976 152.477 8.28705 150.027 10.52L150.027 10.5198C150.027 10.52 150.027 10.5204 150.026 10.5207C150.025 10.5217 150.024 10.5234 150.021 10.5258C150.016 10.5306 150.007 10.5381 149.996 10.5486C149.973 10.5696 149.938 10.6019 149.891 10.645C149.797 10.7313 149.655 10.8611 149.47 11.0317C149.1 11.3731 148.556 11.8775 147.868 12.5219C146.491 13.8111 144.538 15.659 142.247 17.8835C137.925 22.08 132.444 27.573 127.36 33.1627C128.081 39.6046 127.2 46.3763 124.838 51.6918C122.584 56.7613 117.813 62.609 110.198 61.7473V61.7471C108.434 61.5475 106.414 60.9846 104.678 59.575C102.809 58.058 101.818 56.0064 101.516 53.9279C101.001 50.3776 102.494 46.842 103.808 44.3335C106.131 39.8986 110.103 34.7076 114.442 29.6512C113.592 27.105 112.324 24.984 110.721 23.4841C108.448 21.3567 104.795 19.8021 98.5284 21.0663L98.5285 21.0665C93.7065 22.0394 87.8183 25.1914 81.7989 29.7989C78.8629 32.0462 76.014 34.5485 73.3803 37.1303C74.8407 41.9193 75.1144 47.1976 73.6911 51.9607C72.1509 57.1148 68.5613 61.7035 62.655 63.7088H62.6548C60.9765 64.2786 59.3107 64.6898 57.7119 64.826C56.1518 64.9589 54.2619 64.864 52.4319 64.0234C50.4152 63.097 48.9146 61.4602 48.1473 59.4102C47.4522 57.5529 47.4892 55.7233 47.6943 54.3116C48.0962 51.5447 49.4057 48.6559 50.8969 46.0471C52.4565 43.3188 54.5123 40.3899 56.8802 37.45C57.5426 36.6276 58.2347 35.7978 58.9537 34.9647C56.366 31.8349 52.6198 30.0514 48.0953 30.6575H48.0952C41.2649 31.5723 34.6506 36.3246 28.1175 43.6202C21.6374 50.8567 16.0684 59.6187 10.9281 67.3343C9.08562 70.0998 5.37379 70.8322 2.6375 68.97C-0.0987974 67.1078 -0.82337 63.3563 1.0191 60.5907C5.91284 53.2451 12.0578 43.5616 19.2604 35.5183C26.3542 27.5965 35.306 20.2873 46.2665 18.7242L46.5259 18.6883C55.4876 17.4879 62.53 21.0343 67.3035 26.3281C69.6287 24.1738 72.0746 22.0967 74.5866 20.1739C81.2145 15.1007 88.8024 10.7169 96.1898 9.22633H96.1899L96.4104 9.1825C105.731 7.35933 113.376 9.51282 118.838 14.6253C120.568 16.2446 121.998 18.0851 123.166 20.0566C127.018 16.0159 130.817 12.2389 133.971 9.17658C136.323 6.89306 138.329 4.99438 139.75 3.6641C140.461 2.99877 141.026 2.47498 141.415 2.11577C141.61 1.93614 141.761 1.79755 141.864 1.70296C141.915 1.65569 141.955 1.61941 141.982 1.59444C141.996 1.58196 142.007 1.57232 142.014 1.56555C142.018 1.56216 142.021 1.55946 142.023 1.55752C142.024 1.55656 142.025 1.5556 142.025 1.55512C142.026 1.5544 142.027 1.55388 145.917 5.9136L142.027 1.55385Z" fill="#FF4DC4"/>
</svg>
