<svg width="90" height="100" viewBox="0 0 90 100" fill="none" xmlns="http://www.w3.org/2000/svg">
<path d="M46.7459 3.09313e-06C36.374 3.09313e-06 26.0439 3.51838 17.7137 10.2238C4.53591 20.8247 -2.03778 38.5308 0.559002 56.431C3.35349 75.7212 16.2347 91.8356 35.0167 99.5387C38.1648 100.83 41.7615 99.3179 43.0504 96.1689C44.3392 93.016 42.8336 89.4139 39.6856 88.123C24.7627 82.004 14.9458 69.8077 12.7521 54.6604C10.7826 41.0629 15.6416 27.7205 25.4318 19.8384C34.6137 12.4476 47.0767 10.3267 57.9543 14.2982C68.1019 18.0031 74.9265 26.3307 77.1735 37.7464C79.6068 50.1063 72.7061 57.6 66.0564 60.2617C59.2127 63.0032 48.6127 62.097 41.2634 50.5214C39.4384 47.6465 35.6326 46.7974 32.7621 48.6251C29.8916 50.4529 29.0437 54.2644 30.8687 57.1393C41.5296 73.9391 58.5208 76.5665 70.6302 71.7192C82.5267 66.9557 92.9024 53.8646 89.2601 35.3627C86.1919 19.7775 76.3218 7.87446 62.1783 2.71113C57.1939 0.891023 51.9661 3.09313e-06 46.7535 3.09313e-06H46.7459Z" fill="#FCC943"/>
</svg>
