<svg width="160" height="120" fill="none" xmlns="http://www.w3.org/2000/svg"><g clip-path="url(#prefix__clip0_43_381)" stroke="rgba(236,249,238,1)" stroke-width="2"><path d="M-66.839 19.027C-44.46 18.538-22.38 7.377 0 7.5c22.383.123 57.617 15 80 15 22.383 0 57.617-14.877 80-15 22.381-.123 44.461 11.037 66.839 11.527M-66.839 49.028C-44.46 48.537-22.38 37.377 0 37.5c22.383.123 57.617 15 80 15 22.383 0 57.617-14.877 80-15 22.381-.123 44.461 11.037 66.839 11.528M-66.839 79.028C-44.46 78.537-22.38 67.377 0 67.5c22.383.123 57.617 15 80 15 22.383 0 57.617-14.877 80-15 22.381-.123 44.461 11.037 66.839 11.528M-66.839 109.027C-44.46 108.537-22.38 97.377 0 97.5c22.383.123 57.617 15 80 15 22.383 0 57.617-14.877 80-15 22.381-.123 44.461 11.037 66.839 11.527"/></g><defs><clipPath id="prefix__clip0_43_381"><path fill="#fff" d="M0 0h160v120H0z"/></clipPath></defs></svg>