<svg width="768" height="360" viewBox="0 0 768 360" fill="none" xmlns="http://www.w3.org/2000/svg">
<path d="M3.97153 280.69C0.167993 276.695 -1.15096 270.646 1.10404 265.201C4.12187 257.894 12.4165 254.459 19.63 257.523C49.6745 270.264 70.3963 273.495 91.8469 268.162C83.1458 259.483 75.5995 249.837 70.2846 239.489C61.5179 222.432 59.9369 199.335 66.3673 182.013C71.2524 168.829 80.2369 159.338 92.3385 154.549C111.151 147.108 137.583 151.047 151.149 177.247C161.524 197.282 156.574 226.837 148.477 247.813C146.279 253.521 142.879 261.077 138.142 268.439C149.468 275.503 160.549 280.411 168.492 282.074C183.511 285.204 200.562 282.566 217.39 274.799C212.33 267.422 207.847 259.667 203.981 251.58C194.76 232.261 173.187 187.034 194.928 146.971C211.44 116.557 240.487 102.252 268.956 110.521C300.83 119.793 317.465 149.905 313.449 191.059C310.252 223.845 290.483 257.288 260.244 281.494C272.535 293.318 287.082 303.434 303.588 311.527C304.133 311.794 304.813 312.139 305.64 312.561C359.298 339.93 403.357 332.238 430.861 320.963C439.391 317.47 447.624 313.002 455.489 307.675C422.589 281.523 393.433 247.909 371.126 212.885C351.5 182.066 340.878 144.39 342.006 109.519C343.281 69.8968 359.46 37.0552 387.565 17.0324C408.421 2.17842 433.729 -3.20711 458.85 1.85196C490.554 8.24252 520.071 31.0336 541.977 66.0315C566.527 105.258 570.729 161.632 553.234 216.835C542.37 251.103 524.461 281.515 501.907 305.278C529.285 321.566 567.233 336.476 606.268 327.739C684.56 310.219 730.266 224.004 740.127 185C742.063 177.335 749.774 172.713 757.353 174.682C764.926 176.645 769.496 184.452 767.553 192.123C761.957 214.234 746.621 249.707 720.324 282.958C689.757 321.604 652.43 346.777 612.384 355.739C567.572 365.762 521.562 352.008 479.884 325.215C467.888 334.461 455.001 342.007 441.489 347.546C408.556 361.047 356.037 370.381 292.892 338.172C292.231 337.834 291.673 337.555 291.232 337.334C269.893 326.865 251.289 313.42 235.932 297.509C211.564 310.357 185.794 314.952 162.783 310.158C150.794 307.661 134.03 300.2 117.614 289.18C115.59 290.343 113.458 291.342 111.231 292.151C78.8931 303.842 50.1504 301.542 8.69651 283.969C6.86246 283.19 5.26948 282.066 3.9713 280.702L3.97153 280.69ZM122.333 185.207C114.477 176.957 103.995 180.72 102.638 181.257C98.1057 183.049 94.9082 186.599 92.8684 192.103C89.2116 201.951 90.2758 216.323 95.3939 226.273C99.9206 235.08 107.079 243.592 115.361 251.205C117.717 247.358 120.019 242.741 122.093 237.374C128.965 219.573 130.668 199.441 126.063 190.551C124.934 188.372 123.673 186.615 122.333 185.207ZM275.196 146.412C271.702 142.743 267.119 139.804 261.136 138.071C242.622 132.686 227.612 146.273 219.737 160.777C205.021 187.891 220.924 221.211 229.466 239.115C232.921 246.35 236.98 253.277 241.603 259.84C266.179 240.545 282.805 213.374 285.26 188.232C286.419 176.373 286.066 157.829 275.196 146.412ZM499.893 57.7374C485.765 42.9002 469.787 33.2835 453.319 29.9578C435.878 26.4385 418.307 30.1742 403.857 40.4628C357.594 73.4197 363.19 147.557 394.904 197.354C418.011 233.626 447.06 265.624 477.957 289.073C499.19 268.001 516.122 240.004 526.252 208.062C541.218 160.858 538.151 113.489 518.041 81.3592C512.466 72.4577 506.372 64.5413 499.887 57.7311L499.893 57.7374Z" fill="#6B39B0"/>
</svg>
