<svg width="460" height="480" viewBox="0 0 460 480" fill="none" xmlns="http://www.w3.org/2000/svg">
<path d="M226.819 479.99C225.344 479.99 223.88 479.95 222.405 479.86C194.659 478.225 172.903 461.149 162.732 433.031C151.43 401.772 156.561 354.195 245.212 305.012C360.861 240.857 357.861 204.431 345.549 182.607C333.681 161.582 317.853 151.418 298.552 152.296C272.311 153.532 243.787 175.825 230.718 205.279C227.253 213.089 223.627 222.185 219.789 231.82C197.922 286.699 167.964 361.855 100.069 373.385C60.6679 380.088 27.0236 365.077 10.0752 333.269C-8.73171 297.95 -0.66152 251.809 29.7103 221.058C52.8098 197.669 91.9992 177.152 129.896 157.313C164.197 139.359 203.073 119.002 213.103 103.123C223.809 86.1863 223.971 66.3874 213.517 51.4659C202.598 35.8761 182.458 29.2432 159.631 33.7316C150.773 35.4871 142.158 29.7918 140.39 21.0444C138.622 12.297 144.38 3.78891 153.238 2.04342C189.266 -5.04828 221.87 6.56175 240.434 33.0933C258.423 58.797 258.584 92.1808 240.858 120.238C226.162 143.488 188.65 163.128 145.208 185.869C109.533 204.541 72.6469 223.861 53.1229 243.63C29.0941 267.957 28.9729 299.356 39.0329 318.237C49.1939 337.318 69.4148 345.806 94.5142 341.547C144.248 333.099 169.247 270.391 189.326 220.001C193.286 210.077 197.023 200.701 200.73 192.332C218.799 151.588 258.382 121.854 296.976 120.029C328.843 118.543 356.215 135.16 374.122 166.888C386.001 187.934 393.071 221.318 359.305 260.826C339.67 283.806 307.591 307.475 261.231 333.199C223.284 354.255 180.741 386.771 193.538 422.179C199.245 437.968 209.901 446.766 224.344 447.624C245.949 448.93 269.351 433.211 281.33 409.472C291.35 389.623 297.784 373.246 303.45 358.793C315.561 327.972 324.297 305.7 354.073 290.369C380.324 276.844 408.858 277.752 430.402 292.773C453.309 308.752 463.672 337.408 458.834 371.4C457.572 380.237 449.299 386.392 440.351 385.145C431.402 383.898 425.17 375.729 426.432 366.892C429.503 345.308 424.079 327.912 411.524 319.165C400.192 311.255 384.374 311.206 369.204 319.015C351.073 328.351 345.619 340.779 333.953 370.473C328.317 384.826 321.298 402.699 310.611 423.875C293.431 457.917 260.18 480 226.809 480L226.819 479.99Z" fill="#343C4E"/>
</svg>
