<svg width="800" height="512" viewBox="0 0 800 512" fill="none" xmlns="http://www.w3.org/2000/svg">
<path d="M651.238 9.79661C632.823 0.688369 611.444 -2.18976 591.276 1.67115C576.21 3.97014 562.215 10.7969 549.868 19.5717C535.294 30.6806 523.982 46.0014 517.528 63.1474C514.284 71.5712 512.6 80.4864 511.425 89.4191C486.328 268.091 461.231 446.781 436.134 625.454C434.889 634.913 433.118 644.32 433.135 653.884C433.258 670.89 437.801 687.878 446.412 702.567C462.231 730.102 492.326 749.091 524.105 750.775C554.726 752.653 586.19 739.579 605.446 715.466C605.429 728.277 605.446 741.07 605.446 753.882C605.429 762.095 605.394 770.396 606.814 778.521C612.163 812.55 637.032 842.612 669.478 854.177C696.714 864.163 728.493 861.25 753.169 845.859C781.738 828.748 800.153 796.106 799.943 762.727C800.03 664.8 799.96 566.873 799.978 468.929C799.89 460.084 800.223 451.221 799.68 442.359C797.803 408.278 776.354 376.214 745.75 361.262C722.618 349.574 694.732 348.293 670.319 356.682C681.175 279.464 692.014 202.245 702.852 125.027C704.466 113.199 706.746 101.283 705.413 89.3138C703.94 71.2728 697.31 53.6881 686.542 39.1571C677.229 26.8197 665.023 16.7462 651.238 9.77906M386.397 108.513C369.315 102.897 350.689 101.985 333.151 105.986C301.425 112.988 274.452 137.435 263.683 168.041C259.579 179.062 257.878 190.856 257.861 202.596C257.861 287.256 257.878 371.915 257.861 456.574C257.826 458.698 258.703 460.681 258.597 462.822C237.411 397.292 216.068 331.814 194.829 266.319C192.286 258.632 190.024 250.858 186.972 243.329C181.237 229.588 172.433 217.057 161.016 207.44C140.724 189.241 112.33 180.94 85.392 184.099C67.2578 186.521 49.5444 193.751 35.514 205.615C24.8684 214.46 16.0468 225.516 9.89093 237.924C0.981628 256.421 -2.26294 277.814 1.61298 298.049C2.84064 305.051 5.05048 311.843 7.27777 318.582C30.8313 391.114 54.3673 463.629 77.9208 536.161C81.8143 547.569 84.7957 559.415 90.4079 570.155C101.018 590.899 119.293 607.676 141.11 615.994C169.171 627.454 202.616 624.453 228.151 608.097C255.388 591.636 272.908 560.819 273.961 529.089C274.083 522.262 273.996 515.295 272.189 508.661C288.342 536.074 318.893 554.395 350.742 555.448C382.153 557.274 413.774 542.304 432.522 517.085C443.728 502.519 450.568 484.636 452.077 466.314C452.62 458.645 452.445 450.958 452.462 443.289V208.739C452.497 200.806 452.445 192.821 451.077 184.977C447.955 165.9 438.923 147.894 425.647 133.855C414.878 122.395 401.269 113.638 386.414 108.513H386.397Z" fill="#27C4E6"/>
</svg>
