<svg width="500" height="412" viewBox="0 0 500 412" fill="none" xmlns="http://www.w3.org/2000/svg">
    <path d="M278.288 155.879C278.288 105.692 237.503 65.008 187.19 65.0079C119.803 65.0079 65.1707 119.504 65.1707 186.723C65.1708 275.234 137.108 346.992 225.842 346.992C341.265 346.992 434.829 253.661 434.829 138.527C434.829 120.575 449.418 106.023 467.415 106.023C485.411 106.023 500 120.575 500 138.527C500 289.564 377.257 412 225.842 412C101.116 412 0.000107495 311.137 0 186.723C0 83.601 83.8104 0 187.19 0C273.496 0.000107246 343.459 69.7896 343.459 155.879C343.459 228.335 284.577 287.084 211.925 287.085C150.214 287.085 100.182 237.178 100.182 175.621C100.183 122.785 143.126 79.9501 196.094 79.9501C214.09 79.9501 228.679 94.5026 228.679 112.454C228.679 130.405 214.09 144.958 196.094 144.958C179.119 144.958 165.353 158.688 165.353 175.621C165.353 201.275 186.207 222.077 211.925 222.077C248.58 222.077 278.288 192.436 278.288 155.879Z" fill="#FFC0CB"/>
</svg>