<svg width="95" height="40" viewBox="0 0 95 40" fill="none" xmlns="http://www.w3.org/2000/svg">
<path d="M80.0682 40C79.8486 40 79.6317 39.993 79.4095 39.9791C73.9079 39.6353 69.8935 35.3588 67.4759 27.2658C65.9992 22.3296 64.7578 18.3016 63.3098 15.1146C61.428 10.9752 60.1604 10.5268 60.1369 10.5199C60.1552 10.5292 58.1323 10.7707 53.9114 16.355C45.7178 27.1961 40.7702 33.2798 34.3957 32.4273C28.9411 31.6933 26.1054 26.2948 23.0475 17.2168C20.0706 8.37116 17.5041 7.53027 17.4779 7.52562C17.4622 7.52794 14.0306 8.01808 8.1448 20.5944C7.24573 22.5131 4.76805 23.4213 2.60922 22.6246C0.450397 21.8255 -0.571516 19.6234 0.324945 17.7046C6.18984 5.17715 11.6444 -0.279383 17.9275 0.0109819C25.3631 0.352451 29.0404 8.76373 31.1601 15.0612C33.5071 22.0299 35.0151 24.1809 35.692 24.843C38.2769 23.5421 44.2515 15.6372 46.8782 12.1598C50.1556 7.82295 55.2469 2.16897 61.5535 3.10278C69.3603 4.26424 72.4208 14.499 75.659 25.3354C77.3736 31.073 79.3756 32.4319 80.0028 32.4714C81.1214 32.5574 84.344 30.3831 86.8661 25.0846C87.7782 23.1705 90.2585 22.2738 92.4147 23.0845C94.5683 23.8952 95.5746 26.102 94.6651 28.0161C91.8711 33.8838 86.61 39.9977 80.0682 39.9977V40Z" fill="#FF4DC4"/>
</svg>
