<svg width="935" height="450" viewBox="0 0 935 450" fill="none" xmlns="http://www.w3.org/2000/svg">
<path d="M788.039 450C785.878 450 783.743 449.922 781.557 449.765C727.41 445.897 687.899 397.787 664.105 306.74C649.571 251.208 637.353 205.893 623.102 170.039C604.581 123.47 592.105 118.427 591.874 118.348C592.054 118.453 572.144 121.171 530.601 183.994C449.959 305.956 401.265 374.398 338.526 364.807C284.842 356.549 256.932 295.816 226.836 193.689C197.537 94.1756 172.277 84.7155 172.02 84.6632C171.865 84.6894 138.091 90.2034 80.162 231.686C71.3132 253.272 46.9276 263.49 25.6802 254.527C4.43285 245.537 -5.62492 220.763 3.19814 199.177C60.921 58.2429 114.605 -3.14306 176.444 0.123546C249.627 3.96507 285.819 98.592 306.681 169.438C329.78 247.837 344.622 272.036 351.285 279.483C376.725 264.849 435.528 175.919 461.38 136.798C493.637 88.0082 543.746 24.4009 605.816 34.9063C682.651 47.9727 712.773 163.114 744.644 285.024C761.519 349.572 781.223 364.859 787.396 365.304C798.406 366.27 830.122 341.81 854.945 282.201C863.923 260.668 888.334 250.58 909.556 259.701C930.752 268.821 940.655 293.647 931.703 315.181C904.205 381.192 852.424 449.974 788.039 449.974V450Z" fill="#ECF9EE"/>
</svg>
